<svg xmlns="http://www.w3.org/2000/svg" xmlns:xlink="http://www.w3.org/1999/xlink" width="500" zoomAndPan="magnify" viewBox="0 0 375 149.999998" height="200" preserveAspectRatio="xMidYMid meet" version="1.0"><defs><g/><clipPath id="884ad9c3f7"><path d="M 0 63.777344 L 375 63.777344 L 375 90.777344 L 0 90.777344 Z M 0 63.777344 " clip-rule="nonzero"/></clipPath></defs><g fill="#304945" fill-opacity="1"><g transform="translate(56.699667, 118.771563)"><g><path d="M 43.796875 -85.640625 C 67.722656 -85.640625 79.6875 -71.207031 79.6875 -42.34375 C 79.6875 -29.113281 76.28125 -18.664062 69.46875 -11 C 62.65625 -3.34375 54.097656 0.484375 43.796875 0.484375 C 32.847656 0.484375 24.375 -2.515625 18.375 -8.515625 C 11.394531 -15.648438 7.90625 -26.394531 7.90625 -40.75 C 7.90625 -55.101562 11.332031 -66.171875 18.1875 -73.953125 C 25.039062 -81.742188 33.578125 -85.640625 43.796875 -85.640625 Z M 24.328125 -14.359375 C 28.785156 -9.328125 35.273438 -6.8125 43.796875 -6.8125 C 51.828125 -6.8125 58.4375 -9.992188 63.625 -16.359375 C 68.8125 -22.722656 71.40625 -31.863281 71.40625 -43.78125 C 71.40625 -55.707031 68.691406 -64.675781 63.265625 -70.6875 C 58.722656 -75.789062 52.234375 -78.34375 43.796875 -78.34375 C 35.847656 -78.34375 29.257812 -75.140625 24.03125 -68.734375 C 18.800781 -62.328125 16.1875 -53.140625 16.1875 -41.171875 C 16.1875 -29.210938 18.898438 -20.273438 24.328125 -14.359375 Z M 24.328125 -14.359375 "/></g></g></g><g fill="#304945" fill-opacity="1"><g transform="translate(144.280953, 118.771563)"><g><path d="M 36.125 -39.171875 L 13.75 0 L 5.234375 0 L 32.359375 -45.375 L 7.296875 -85.15625 L 16.78125 -85.15625 L 37.71875 -50.359375 L 57.671875 -85.15625 L 66.1875 -85.15625 L 41.484375 -44.15625 L 69.34375 0 L 59.859375 0 Z M 36.125 -39.171875 "/></g></g></g><g fill="#304945" fill-opacity="1"><g transform="translate(218.846691, 118.771563)"><g><path d="M 77.5 -11.921875 L 97.6875 -85.15625 L 105.59375 -85.15625 L 80.65625 0 L 73.234375 0 L 54.859375 -72.5 L 34.796875 0 L 27.25 0 L 5.46875 -85.15625 L 13.140625 -85.15625 L 31.625 -12.28125 L 51.703125 -85.15625 L 58.515625 -85.15625 Z M 77.5 -11.921875 "/></g></g></g><g clip-path="url(#884ad9c3f7)"><path fill="#ffffff" d="M -13.449219 63.777344 L 401.300781 63.777344 L 401.300781 90.777344 L -13.449219 90.777344 L -13.449219 63.777344 " fill-opacity="1" fill-rule="nonzero"/></g><g fill="#545454" fill-opacity="1"><g transform="translate(87.653274, 81.635013)"><g><path d="M 0.460938 -4.605469 C 0.460938 -1.949219 2.578125 0.171875 5.238281 0.171875 C 7.898438 0.171875 10.03125 -1.949219 10.03125 -4.605469 C 10.03125 -7.265625 7.898438 -9.398438 5.238281 -9.398438 C 2.578125 -9.398438 0.460938 -7.265625 0.460938 -4.605469 Z M 1.828125 -4.605469 C 1.828125 -6.503906 3.34375 -8.027344 5.238281 -8.027344 C 7.132812 -8.027344 8.660156 -6.503906 8.660156 -4.605469 C 8.660156 -2.710938 7.132812 -1.199219 5.238281 -1.199219 C 3.34375 -1.199219 1.828125 -2.710938 1.828125 -4.605469 Z M 1.828125 -4.605469 "/></g></g></g><g fill="#545454" fill-opacity="1"><g transform="translate(108.766265, 81.635013)"><g><path d="M 4.289062 -5.832031 L 1.738281 -9.304688 L 0.105469 -9.304688 L 3.488281 -4.6875 L 0.15625 0 L 1.789062 0 L 4.289062 -3.621094 L 6.804688 0 L 8.425781 0 L 5.09375 -4.6875 L 8.503906 -9.304688 L 6.882812 -9.304688 Z M 4.289062 -5.832031 "/></g></g></g><g fill="#545454" fill-opacity="1"><g transform="translate(127.89207, 81.635013)"><g><path d="M 6.753906 -1.328125 L 2.472656 -1.328125 L 2.472656 -4.039062 L 6.648438 -4.039062 L 6.648438 -5.382812 L 2.472656 -5.382812 L 2.472656 -7.976562 L 6.738281 -7.976562 L 6.738281 -9.304688 L 1.132812 -9.304688 L 1.132812 0 L 6.753906 0 Z M 6.753906 -1.328125 "/></g></g></g><g fill="#545454" fill-opacity="1"><g transform="translate(145.767663, 81.635013)"><g><path d="M 1.132812 -9.214844 L 1.132812 0 L 2.460938 0 L 2.460938 -6.4375 L 6.910156 0 L 7.964844 0 L 7.964844 -9.214844 L 6.648438 -9.214844 L 6.648438 -2.726562 L 2.160156 -9.214844 Z M 1.132812 -9.214844 "/></g></g></g><g fill="#545454" fill-opacity="1"><g transform="translate(165.393564, 81.635013)"><g/></g></g><g fill="#545454" fill-opacity="1"><g transform="translate(179.202663, 81.635013)"><g><path d="M 5.648438 -4.382812 L 7.265625 0.0507812 L 8.199219 0.0507812 L 11.304688 -9.304688 L 9.910156 -9.304688 C 9.226562 -7.214844 8.410156 -4.765625 7.6875 -2.566406 L 6.1875 -6.859375 L 5.121094 -6.859375 L 3.605469 -2.554688 L 1.367188 -9.304688 L -0.0117188 -9.304688 L 3.121094 0.0507812 L 4.054688 0.0507812 C 4.527344 -1.34375 5.121094 -2.882812 5.648438 -4.382812 Z M 5.648438 -4.382812 "/></g></g></g><g fill="#545454" fill-opacity="1"><g transform="translate(200.973661, 81.635013)"><g><path d="M 6.753906 -1.328125 L 2.472656 -1.328125 L 2.472656 -4.039062 L 6.648438 -4.039062 L 6.648438 -5.382812 L 2.472656 -5.382812 L 2.472656 -7.976562 L 6.738281 -7.976562 L 6.738281 -9.304688 L 1.132812 -9.304688 L 1.132812 0 L 6.753906 0 Z M 6.753906 -1.328125 "/></g></g></g><g fill="#545454" fill-opacity="1"><g transform="translate(218.849252, 81.635013)"><g><path d="M 5.738281 -6.832031 L 7.054688 -6.882812 C 6.816406 -8.570312 5.34375 -9.304688 3.921875 -9.304688 C 2.855469 -9.304688 1.75 -8.882812 1.132812 -8.082031 C 0.789062 -7.632812 0.617188 -7.109375 0.617188 -6.554688 C 0.617188 -6.488281 0.632812 -6.410156 0.632812 -6.332031 L 0.632812 -6.34375 C 0.777344 -4.421875 2.460938 -4.105469 3.894531 -3.960938 C 4.816406 -3.871094 5.765625 -3.75 5.921875 -3.054688 C 5.949219 -2.933594 5.960938 -2.828125 5.960938 -2.738281 C 5.960938 -1.789062 4.882812 -1.238281 3.894531 -1.238281 C 3.039062 -1.238281 2 -1.683594 1.910156 -2.539062 L 1.910156 -2.488281 L 1.894531 -2.683594 L 0.554688 -2.660156 L 0.566406 -2.410156 C 0.738281 -0.761719 2.460938 0.078125 3.882812 0.078125 C 5.542969 0.078125 7.304688 -0.949219 7.304688 -2.726562 C 7.304688 -2.910156 7.277344 -3.132812 7.238281 -3.332031 C 6.882812 -4.804688 5.316406 -5.132812 4.054688 -5.292969 C 3.027344 -5.382812 1.960938 -5.515625 1.960938 -6.582031 C 1.960938 -6.84375 2.027344 -7.109375 2.183594 -7.304688 C 2.566406 -7.792969 3.265625 -8.003906 3.894531 -8.003906 C 4.6875 -8.003906 5.554688 -7.648438 5.738281 -6.832031 Z M 5.738281 -6.832031 "/></g></g></g><g fill="#545454" fill-opacity="1"><g transform="translate(237.211765, 81.635013)"><g><path d="M 2.871094 -8.042969 L 2.871094 0 L 4.199219 0 L 4.199219 -8.042969 L 6.976562 -8.042969 L 6.976562 -9.304688 L 0.078125 -9.304688 L 0.078125 -8.042969 Z M 2.871094 -8.042969 "/></g></g></g><g fill="#545454" fill-opacity="1"><g transform="translate(254.810992, 81.635013)"><g><path d="M 6.753906 -1.328125 L 2.472656 -1.328125 L 2.472656 -4.039062 L 6.648438 -4.039062 L 6.648438 -5.382812 L 2.472656 -5.382812 L 2.472656 -7.976562 L 6.738281 -7.976562 L 6.738281 -9.304688 L 1.132812 -9.304688 L 1.132812 0 L 6.753906 0 Z M 6.753906 -1.328125 "/></g></g></g><g fill="#545454" fill-opacity="1"><g transform="translate(272.686583, 81.635013)"><g><path d="M 4.488281 -4.671875 L 2.933594 -4.671875 L 2.933594 -4.039062 L 6.292969 0 L 8.015625 0 L 5.105469 -3.460938 C 6.6875 -3.738281 7.488281 -4.976562 7.488281 -6.277344 C 7.488281 -7.738281 6.488281 -9.332031 4.488281 -9.332031 L 1.132812 -9.332031 L 1.132812 0 L 2.449219 0 L 2.449219 -7.988281 L 4.488281 -7.988281 C 5.605469 -7.988281 6.160156 -7.066406 6.160156 -6.277344 C 6.160156 -5.476562 5.605469 -4.671875 4.488281 -4.671875 Z M 4.488281 -4.671875 "/></g></g></g><g fill="#545454" fill-opacity="1"><g transform="translate(291.062269, 81.635013)"><g><path d="M 1.132812 -9.214844 L 1.132812 0 L 2.460938 0 L 2.460938 -6.4375 L 6.910156 0 L 7.964844 0 L 7.964844 -9.214844 L 6.648438 -9.214844 L 6.648438 -2.726562 L 2.160156 -9.214844 Z M 1.132812 -9.214844 "/></g></g></g></svg>